<svg width="49" height="62" viewBox="0 0 49 62" fill="none" xmlns="http://www.w3.org/2000/svg">
<g filter="url(#filter0_d_37_216)">
<path d="M11.4169 3.864C12.0742 2.2721 12.4028 1.47615 13.0822 1.05525C13.7615 0.634342 14.6205 0.694411 16.3386 0.814549L33.9136 2.04352C35.6316 2.16365 36.4907 2.22372 37.1048 2.73508C37.7189 3.24643 37.9336 4.08037 38.3629 5.74825L39.4248 9.87349L9.79128 7.80132L11.4169 3.864Z" fill="#F2EDF2"/>
<path opacity="0.5" d="M16.4829 0.824659L22.6565 1.25636L19.669 8.49205L13.4954 8.06035L16.4829 0.824659Z" fill="white"/>
<path opacity="0.06" d="M34.4858 9.52815L39.4247 9.87351L38.3628 5.74826C37.9335 4.08039 37.7188 3.24645 37.1047 2.73509C36.4906 2.22374 35.6315 2.16367 33.9135 2.04353L32.5343 1.9471L34.4858 9.52815Z" fill="#373435"/>
<rect x="6.08716" y="7.54224" width="37.1323" height="4.95098" rx="1.23774" transform="rotate(4 6.08716 7.54224)" fill="#F2EDF2"/>
<path opacity="0.5" d="M11.0261 7.88757L17.1998 8.31928L16.8544 13.2582L10.6808 12.8265L11.0261 7.88757Z" fill="white"/>
<path opacity="0.06" d="M38.1901 9.78711L40.6596 9.95979C41.8237 10.0412 42.4058 10.0819 42.7421 10.4688C42.7421 10.4688 42.7421 10.4688 42.7421 10.4688C43.0785 10.8558 43.0378 11.4378 42.9564 12.6019C42.875 13.766 42.8343 14.3481 42.4473 14.6845C42.4473 14.6845 42.4473 14.6845 42.4473 14.6845C42.0604 15.0208 41.4783 14.9801 40.3142 14.8987L37.8448 14.726L38.1901 9.78711Z" fill="#373435"/>
<path d="M9.44598 12.7402L39.0795 14.8124L33.5408 47.1789C33.1816 49.2778 33.0021 50.3272 32.2519 50.9164C31.5018 51.5055 30.4396 51.4312 28.3154 51.2827L15.0296 50.3537C12.9054 50.2051 11.8433 50.1309 11.1824 49.4431C10.5215 48.7553 10.4898 47.691 10.4262 45.5625L9.44598 12.7402Z" fill="#E3DFE3"/>
<path opacity="0.5" d="M13.1501 12.9993L19.3238 13.431L20.4378 50.7319L14.2641 50.3002L13.1501 12.9993Z" fill="white"/>
<path opacity="0.06" d="M39.0795 14.8124L34.1406 14.467L27.8461 51.2499L28.3154 51.2827C30.4396 51.4312 31.5017 51.5055 32.2519 50.9163C33.002 50.3272 33.1816 49.2778 33.5408 47.1788L39.0795 14.8124Z" fill="#373435"/>
<path opacity="0.06" fill-rule="evenodd" clip-rule="evenodd" d="M39.0795 14.8124L9.44598 12.7402L9.48312 13.9836L38.8697 16.0385L39.0795 14.8124Z" fill="#373435"/>
<path fill-rule="evenodd" clip-rule="evenodd" d="M10.2629 40.0943L10.1886 37.6075L34.8832 39.3344L34.4636 41.7865L10.2629 40.0943Z" fill="#D27F55" fill-opacity="0.3"/>
<path fill-rule="evenodd" clip-rule="evenodd" d="M33.4578 40.4755C34.5214 40.5499 35.0533 40.5871 35.4285 40.2919C35.8038 39.9966 35.8929 39.471 36.0711 38.4198L38.9813 21.2525C39.1946 19.9944 39.3012 19.3653 38.962 18.9341C38.6228 18.5029 37.9863 18.4584 36.7133 18.3693L11.294 16.5918C10.021 16.5028 9.38447 16.4583 8.98856 16.8381C8.59265 17.2179 8.6107 17.8557 8.6468 19.1313L9.13943 36.5365C9.1696 37.6023 9.18468 38.1353 9.51523 38.4798C9.84577 38.8244 10.3776 38.8616 11.4413 38.9359L33.4578 40.4755Z" fill="#E59A61"/>
<g opacity="0.4">
<path fill-rule="evenodd" clip-rule="evenodd" d="M10.7921 16.5568L16.9657 16.9885L17.6341 39.369L11.4604 38.9373L10.7921 16.5568Z" fill="white" style="mix-blend-mode:soft-light"/>
</g>
<path style="mix-blend-mode:soft-light" fill-rule="evenodd" clip-rule="evenodd" d="M33.5401 40.4812L33.4387 40.4741L37.2151 18.4055C38.1601 18.4786 38.6707 18.5637 38.9621 18.934C39.3013 19.3652 39.1946 19.9943 38.9814 21.2525L36.0712 38.4197C35.893 39.471 35.8039 39.9966 35.4286 40.2918C35.0631 40.5793 34.5492 40.5515 33.5401 40.4812Z" fill="black" fill-opacity="0.4"/>
<path fill-rule="evenodd" clip-rule="evenodd" d="M20.4851 23.4384C20.509 23.0974 20.8047 22.8404 21.1457 22.8642C21.4866 22.888 21.7437 23.1838 21.7199 23.5247L21.0292 33.4026C21.0053 33.7435 20.7096 34.0006 20.3686 33.9768C20.0277 33.9529 19.7706 33.6572 19.7944 33.3162L20.4851 23.4384ZM15.5462 23.093C15.57 22.7521 15.8658 22.495 16.2067 22.5188C16.5477 22.5427 16.8048 22.8384 16.7809 23.1794L16.0902 33.0572C16.0663 33.3982 15.7706 33.6552 15.4297 33.6314C15.0887 33.6075 14.8316 33.3118 14.8555 32.9709L15.5462 23.093ZM13.0768 22.9203C13.1006 22.5794 13.3963 22.3223 13.7373 22.3462C14.0783 22.37 14.3353 22.6657 14.3115 23.0067L13.6208 32.8845C13.5969 33.2255 13.3012 33.4826 12.9602 33.4587C12.6193 33.4349 12.3622 33.1391 12.386 32.7982L13.0768 22.9203ZM18.6762 22.6915C18.3352 22.6677 18.0395 22.9247 18.0156 23.2657L17.3249 33.1435C17.3011 33.4845 17.5581 33.7802 17.8991 33.8041C18.2401 33.8279 18.5358 33.5708 18.5596 33.2299L19.2504 23.352C19.2742 23.0111 19.0171 22.7154 18.6762 22.6915ZM23.6151 23.0369C23.2742 23.013 22.9784 23.2701 22.9546 23.6111L22.2639 33.4889C22.24 33.8299 22.4971 34.1256 22.8381 34.1494C23.179 34.1733 23.4748 33.9162 23.4986 33.5752L24.1893 23.6974C24.2132 23.3565 23.9561 23.0607 23.6151 23.0369ZM25.424 23.7837C25.4479 23.4428 25.7436 23.1857 26.0846 23.2096C26.4255 23.2334 26.6826 23.5291 26.6588 23.8701L25.968 33.7479C25.9442 34.0889 25.6485 34.346 25.3075 34.3221C24.9665 34.2983 24.7095 34.0025 24.7333 33.6616L25.424 23.7837ZM28.554 23.3822C28.2131 23.3584 27.9173 23.6155 27.8935 23.9564L27.2028 33.8343C27.1789 34.1752 27.436 34.471 27.7769 34.4948C28.1179 34.5186 28.4136 34.2616 28.4375 33.9206L29.1282 24.0428C29.1521 23.7018 28.895 23.4061 28.554 23.3822ZM30.3629 24.1291C30.3868 23.7882 30.6825 23.5311 31.0235 23.5549C31.3644 23.5788 31.6215 23.8745 31.5977 24.2155L30.9069 34.0933C30.8831 34.4342 30.5874 34.6913 30.2464 34.6675C29.9054 34.6436 29.6484 34.3479 29.6722 34.0069L30.3629 24.1291ZM33.4929 23.7276C33.1519 23.7038 32.8562 23.9608 32.8324 24.3018L32.1416 34.1796C32.1178 34.5206 32.3749 34.8163 32.7158 34.8402C33.0568 34.864 33.3525 34.6069 33.3764 34.266L34.0671 24.3881C34.0909 24.0472 33.8339 23.7514 33.4929 23.7276Z" fill="#AB604B" style="mix-blend-mode:darken"/>
</g>
<defs>
<filter id="filter0_d_37_216" x="-1.79943" y="0.133911" width="50.3974" height="61.8813" filterUnits="userSpaceOnUse" color-interpolation-filters="sRGB">
<feFlood flood-opacity="0" result="BackgroundImageFix"/>
<feColorMatrix in="SourceAlpha" type="matrix" values="0 0 0 0 0 0 0 0 0 0 0 0 0 0 0 0 0 0 127 0" result="hardAlpha"/>
<feOffset dy="4.95098"/>
<feGaussianBlur stdDeviation="2.47549"/>
<feColorMatrix type="matrix" values="0 0 0 0 0 0 0 0 0 0 0 0 0 0 0 0 0 0 0.12 0"/>
<feBlend mode="darken" in2="BackgroundImageFix" result="effect1_dropShadow_37_216"/>
<feBlend mode="normal" in="SourceGraphic" in2="effect1_dropShadow_37_216" result="shape"/>
</filter>
</defs>
</svg>
