<svg width="34" height="46" viewBox="0 0 34 46" fill="none" xmlns="http://www.w3.org/2000/svg">
<g clip-path="url(#clip0_37_223)">
<mask id="path-1-inside-1_37_223" fill="white">
<path fill-rule="evenodd" clip-rule="evenodd" d="M31.887 -1.19116H1.53735V0.0734067H31.887V-1.19116ZM28.4799 40.9597L31.887 0.07341H1.5374L4.94459 40.9597C5.12804 43.1612 5.21977 44.2619 5.94574 44.9299C6.67171 45.5979 7.77627 45.5979 9.98538 45.5979H23.4391C25.6482 45.5979 26.7527 45.5979 27.4787 44.9299C28.2047 44.2619 28.2964 43.1612 28.4799 40.9597Z"/>
</mask>
<path fill-rule="evenodd" clip-rule="evenodd" d="M31.887 -1.19116H1.53735V0.0734067H31.887V-1.19116ZM28.4799 40.9597L31.887 0.07341H1.5374L4.94459 40.9597C5.12804 43.1612 5.21977 44.2619 5.94574 44.9299C6.67171 45.5979 7.77627 45.5979 9.98538 45.5979H23.4391C25.6482 45.5979 26.7527 45.5979 27.4787 44.9299C28.2047 44.2619 28.2964 43.1612 28.4799 40.9597Z" fill="#ECE8FF"/>
<path d="M1.53735 -1.19116V-2.45573H0.272785V-1.19116H1.53735ZM31.887 -1.19116H33.1516V-2.45573H31.887V-1.19116ZM1.53735 0.0734067H0.272785V1.33798H1.53735V0.0734067ZM31.887 0.0734067V1.33798H33.1516V0.0734067H31.887ZM31.887 0.07341L33.1472 0.178427L33.2614 -1.19116H31.887V0.07341ZM28.4799 40.9597L27.2197 40.8547V40.8547L28.4799 40.9597ZM1.5374 0.07341V-1.19116H0.163063L0.277195 0.178427L1.5374 0.07341ZM4.94459 40.9597L3.68438 41.0647L4.94459 40.9597ZM5.94574 44.9299L5.08949 45.8605L5.08949 45.8605L5.94574 44.9299ZM27.4787 44.9299L28.335 45.8605L28.335 45.8605L27.4787 44.9299ZM1.53735 0.0734067H31.887V-2.45573H1.53735V0.0734067ZM2.80192 0.0734067V-1.19116H0.272785V0.0734067H2.80192ZM31.887 -1.19116H1.53735V1.33798H31.887V-1.19116ZM30.6224 -1.19116V0.0734067H33.1516V-1.19116H30.6224ZM30.6268 -0.0316067L27.2197 40.8547L29.7401 41.0647L33.1472 0.178427L30.6268 -0.0316067ZM1.5374 1.33798H31.887V-1.19116H1.5374V1.33798ZM6.20479 40.8547L2.7976 -0.0316067L0.277195 0.178427L3.68438 41.0647L6.20479 40.8547ZM6.80199 43.9993C6.70568 43.9107 6.58557 43.753 6.47791 43.2534C6.3626 42.7184 6.29935 41.9894 6.20479 40.8547L3.68438 41.0647C3.77328 42.1314 3.84762 43.0535 4.00554 43.7863C4.17109 44.5545 4.45984 45.2811 5.08949 45.8605L6.80199 43.9993ZM9.98538 44.3333C8.84669 44.3333 8.11495 44.3308 7.57222 44.2603C7.06545 44.1945 6.89831 44.0879 6.80199 43.9993L5.08949 45.8605C5.71915 46.4398 6.46727 46.6672 7.24654 46.7684C7.98987 46.8649 8.91496 46.8625 9.98538 46.8625V44.3333ZM23.4391 44.3333H9.98538V46.8625H23.4391V44.3333ZM26.6224 43.9993C26.5261 44.0879 26.359 44.1945 25.8522 44.2603C25.3095 44.3308 24.5778 44.3333 23.4391 44.3333V46.8625C24.5095 46.8625 25.4346 46.8649 26.1779 46.7684C26.9572 46.6672 27.7053 46.4398 28.335 45.8605L26.6224 43.9993ZM27.2197 40.8547C27.1251 41.9894 27.0618 42.7184 26.9465 43.2534C26.8389 43.753 26.7188 43.9107 26.6224 43.9993L28.335 45.8605C28.9646 45.2811 29.2533 44.5545 29.4189 43.7863C29.5768 43.0535 29.6512 42.1314 29.7401 41.0647L27.2197 40.8547Z" fill="#CECCF1" mask="url(#path-1-inside-1_37_223)"/>
<path fill-rule="evenodd" clip-rule="evenodd" d="M2.06427 6.39624L4.94456 40.9597C5.12801 43.1611 5.21974 44.2619 5.94571 44.9299C6.67168 45.5979 7.77624 45.5979 9.98535 45.5979H23.439C25.6481 45.5979 26.7527 45.5979 27.4787 44.9299C28.2046 44.2619 28.2964 43.1611 28.4798 40.9597L31.3601 6.39624H2.06427Z" fill="#E59A61"/>
<path fill-rule="evenodd" clip-rule="evenodd" d="M9.12477 45.5979H15.4476L12.1808 6.39624H5.85797L9.12477 45.5979Z" fill="#F5BE80"/>
<path opacity="0.5" fill-rule="evenodd" clip-rule="evenodd" d="M11.6539 0.0733643H5.33105L5.85796 6.39621H12.1808L11.6539 0.0733643Z" fill="white"/>
<path fill-rule="evenodd" clip-rule="evenodd" d="M31.3601 6.39624H26.3018L23.035 45.5979H23.439C25.6481 45.5979 26.7527 45.5979 27.4787 44.9299C28.2046 44.2619 28.2964 43.1611 28.4798 40.9597L31.3601 6.39624Z" fill="#C7754F"/>
<path opacity="0.06" fill-rule="evenodd" clip-rule="evenodd" d="M26.8286 0.0733643H31.8869L31.36 6.39621H26.3017L26.8286 0.0733643Z" fill="#373435"/>
<path opacity="0.06" fill-rule="evenodd" clip-rule="evenodd" d="M31.887 0.0733643H1.53735L1.64273 1.33793H31.7816L31.887 0.0733643Z" fill="#373435"/>
</g>
<defs>
<clipPath id="clip0_37_223">
<rect width="32.8788" height="45.5245" fill="white" transform="translate(0.272766 0.0733643)"/>
</clipPath>
</defs>
</svg>
