<svg width="30" height="30" viewBox="0 0 30 30" fill="none" xmlns="http://www.w3.org/2000/svg">
<path d="M9.12 1H20.88C25.36 1 29 4.64 29 9.12V20.88C29 23.0336 28.1445 25.0989 26.6217 26.6217C25.0989 28.1445 23.0336 29 20.88 29H9.12C4.64 29 1 25.36 1 20.88V9.12C1 6.96644 1.8555 4.90109 3.37829 3.37829C4.90109 1.8555 6.96644 1 9.12 1ZM8.84 3.8C7.50331 3.8 6.22137 4.331 5.27618 5.27618C4.331 6.22137 3.8 7.50331 3.8 8.84V21.16C3.8 23.946 6.054 26.2 8.84 26.2H21.16C22.4967 26.2 23.7786 25.669 24.7238 24.7238C25.669 23.7786 26.2 22.4967 26.2 21.16V8.84C26.2 6.054 23.946 3.8 21.16 3.8H8.84ZM22.35 5.9C22.8141 5.9 23.2592 6.08437 23.5874 6.41256C23.9156 6.74075 24.1 7.18587 24.1 7.65C24.1 8.11413 23.9156 8.55925 23.5874 8.88744C23.2592 9.21563 22.8141 9.4 22.35 9.4C21.8859 9.4 21.4408 9.21563 21.1126 8.88744C20.7844 8.55925 20.6 8.11413 20.6 7.65C20.6 7.18587 20.7844 6.74075 21.1126 6.41256C21.4408 6.08437 21.8859 5.9 22.35 5.9ZM15 8C16.8565 8 18.637 8.7375 19.9497 10.0503C21.2625 11.363 22 13.1435 22 15C22 16.8565 21.2625 18.637 19.9497 19.9497C18.637 21.2625 16.8565 22 15 22C13.1435 22 11.363 21.2625 10.0503 19.9497C8.7375 18.637 8 16.8565 8 15C8 13.1435 8.7375 11.363 10.0503 10.0503C11.363 8.7375 13.1435 8 15 8ZM15 10.8C13.8861 10.8 12.8178 11.2425 12.0302 12.0302C11.2425 12.8178 10.8 13.8861 10.8 15C10.8 16.1139 11.2425 17.1822 12.0302 17.9698C12.8178 18.7575 13.8861 19.2 15 19.2C16.1139 19.2 17.1822 18.7575 17.9698 17.9698C18.7575 17.1822 19.2 16.1139 19.2 15C19.2 13.8861 18.7575 12.8178 17.9698 12.0302C17.1822 11.2425 16.1139 10.8 15 10.8Z" fill="#EDB471"/>
</svg>
