<svg width="40" height="40" viewBox="0 0 40 40" fill="none" xmlns="http://www.w3.org/2000/svg">
<path fill-rule="evenodd" clip-rule="evenodd" d="M29.5163 26.0928L20.2251 16.8016L32.9163 13.4016L29.5163 26.0928ZM15.2171 21.1552C15.2459 21.1648 15.2731 21.1744 15.3003 21.184L15.2171 21.1552ZM4.54989 34.7648L3.46829 38.8C3.39149 39.0896 3.09069 39.2624 2.80269 39.184C2.51469 39.1072 2.34029 38.8064 2.41869 38.5184L3.96909 32.7312L4.84429 29.464L6.29549 24.032L6.43949 23.4976C6.48109 23.3296 6.56749 23.1696 6.70029 23.0384C7.08589 22.6528 7.71149 22.6528 8.09709 23.0384L8.50029 23.4416L13.1163 28.0576C13.2539 28.208 13.4683 28.2784 13.6795 28.2224C13.9803 28.1424 14.1595 27.832 14.0795 27.5312L13.7323 26.232L13.1995 24.2432V24.2416V24.2384L13.1979 24.2352L13.1963 24.2304L13.1947 24.224L12.9611 23.3504L12.9643 23.3472L12.9563 23.3168C12.7003 22.3648 13.2667 21.3856 14.2187 21.1296C14.5611 21.0384 14.9067 21.0528 15.2203 21.152L22.2251 24.3376L20.9867 23.1456L15.8187 17.984L15.0363 17.2016C14.7867 16.9616 14.5979 16.6512 14.5019 16.2928C14.2203 15.2384 14.8443 14.1552 15.8987 13.872L17.0011 13.576L34.1003 8.99518L35.2027 8.69918H35.2043C36.2571 8.41758 37.3403 9.04318 37.6219 10.0976C37.7179 10.456 37.7083 10.8176 37.6139 11.1504L37.3275 12.2224L33.4971 26.5168L32.7451 29.3216L32.4587 30.3904C32.2907 31.064 31.7707 31.6288 31.0523 31.8224C30.6395 31.9328 30.2203 31.904 29.8491 31.7648L29.8459 31.7632C29.7675 31.7328 29.6907 31.6992 29.6155 31.6592L24.2123 29.2176L24.2091 29.2192L24.1947 29.2096L14.7499 24.9408C14.7099 24.9216 14.6667 24.912 14.6203 24.912C14.4507 24.912 14.3147 25.048 14.3147 25.2176C14.3147 25.24 14.3179 25.2624 14.3227 25.2848V25.288V25.2896L14.9451 27.608L15.3851 29.2496L15.5099 29.7152L15.5067 29.7184C15.5723 29.9136 15.6075 30.1216 15.6075 30.3392C15.6075 31.424 14.7291 32.3024 13.6443 32.3024C13.1355 32.3024 12.6715 32.1088 12.3227 31.7904C12.2763 31.7552 12.2315 31.7152 12.1867 31.672L12.1851 31.6704L11.0635 30.5488L10.4235 29.9088L8.92269 28.408L8.81709 28.3024L8.54989 28.0352L8.14189 27.6272L7.20589 26.6912C7.14829 26.64 7.07309 26.6096 6.98989 26.6096C6.83949 26.6096 6.71309 26.7104 6.67629 26.848L4.54989 34.7648Z" fill="white"/>
<path fill-rule="evenodd" clip-rule="evenodd" d="M21.2843 16.5184C21.2843 16.5184 23.9403 17.7648 27.2699 16.8288C30.5995 15.8928 32.0235 16.736 32.0235 16.736L29.5163 26.0928L20.2251 16.8016L21.2843 16.5184Z" fill="black"/>
<path d="M30.7611 36.7584V34.4832H32.4443V34.8672H31.2219V35.3728H32.3595V35.7568H31.2219V36.3728H32.4891V36.7568H30.7611V36.7584ZM28.6171 36.7584V34.4832H30.1803V34.8672H29.0779V35.408H30.0315V35.792H29.0779V36.7584H28.6171ZM27.3275 35.856L27.0107 35.0144L26.7035 35.856H27.3275ZM28.1691 36.7584H27.6731L27.4763 36.24H26.5643L26.3755 36.7584H25.8891L26.7723 34.4832H27.2587L28.1691 36.7584ZM25.0779 35.92L25.5227 36.056C25.4539 36.3072 25.3403 36.4928 25.1819 36.6144C25.0235 36.736 24.8219 36.7968 24.5771 36.7968C24.2747 36.7968 24.0267 36.6928 23.8315 36.4864C23.6379 36.28 23.5403 35.9984 23.5403 35.64C23.5403 35.2608 23.6379 34.9664 23.8331 34.7568C24.0283 34.5472 24.2859 34.4416 24.6043 34.4416C24.8827 34.4416 25.1083 34.5248 25.2827 34.6896C25.3867 34.7872 25.4635 34.9264 25.5163 35.1088L25.0619 35.216C25.0347 35.0992 24.9787 35.0048 24.8939 34.9376C24.8091 34.8688 24.7051 34.8352 24.5819 34.8352C24.4123 34.8352 24.2763 34.896 24.1707 35.0176C24.0651 35.1376 24.0123 35.3344 24.0123 35.6048C24.0123 35.8912 24.0651 36.0976 24.1675 36.2192C24.2715 36.3408 24.4059 36.4016 24.5707 36.4016C24.6923 36.4016 24.7979 36.3632 24.8859 36.2848C24.9771 36.208 25.0411 36.0864 25.0779 35.92ZM20.7051 35.4464H21.0443C21.2651 35.4464 21.4011 35.4368 21.4571 35.4176C21.5115 35.4 21.5547 35.3664 21.5851 35.3216C21.6155 35.2768 21.6315 35.2192 21.6315 35.1504C21.6315 35.0736 21.6107 35.0112 21.5707 34.9648C21.5307 34.9184 21.4715 34.888 21.3979 34.8752C21.3611 34.8688 21.2491 34.8672 21.0635 34.8672H20.7051V35.4464ZM20.2443 36.7584V34.4832H21.2123C21.4555 34.4832 21.6315 34.504 21.7419 34.544C21.8523 34.584 21.9403 34.6576 22.0059 34.7616C22.0715 34.8656 22.1051 34.9856 22.1051 35.12C22.1051 35.2912 22.0555 35.432 21.9547 35.5424C21.8555 35.6528 21.7051 35.7232 21.5067 35.752C21.6059 35.8096 21.6875 35.8736 21.7515 35.9424C21.8155 36.0112 21.9019 36.136 22.0123 36.312L22.2891 36.7552H21.7403L21.4107 36.2592C21.2939 36.0832 21.2107 35.9712 21.1675 35.9264C21.1243 35.8816 21.0779 35.8496 21.0299 35.832C20.9803 35.8144 20.9035 35.8064 20.7979 35.8064H20.7051V36.7568H20.2443V36.7584ZM18.2075 35.7632V36.3728H18.6331C18.7979 36.3728 18.9035 36.368 18.9483 36.3584C19.0171 36.3456 19.0731 36.3152 19.1147 36.2672C19.1579 36.2192 19.1787 36.1552 19.1787 36.0736C19.1787 36.0048 19.1627 35.9472 19.1291 35.8992C19.0955 35.8512 19.0475 35.816 18.9851 35.7952C18.9227 35.7728 18.7867 35.7616 18.5771 35.7616H18.2075V35.7632ZM18.2075 34.8608V35.3856H18.5083C18.6875 35.3856 18.7979 35.3824 18.8411 35.3776C18.9195 35.368 18.9819 35.3408 19.0267 35.296C19.0715 35.2512 19.0939 35.192 19.0939 35.12C19.0939 35.0496 19.0747 34.9936 19.0363 34.9488C18.9979 34.9056 18.9403 34.8784 18.8635 34.8688C18.8187 34.864 18.6875 34.8608 18.4715 34.8608H18.2075ZM17.7483 34.4832H18.6571C18.8379 34.4832 18.9723 34.4912 19.0603 34.5056C19.1499 34.52 19.2283 34.552 19.2987 34.6C19.3691 34.648 19.4267 34.7104 19.4731 34.7888C19.5195 34.8672 19.5435 34.9568 19.5435 35.0544C19.5435 35.16 19.5147 35.2576 19.4571 35.3472C19.3995 35.4368 19.3227 35.5024 19.2235 35.5472C19.3611 35.5888 19.4683 35.656 19.5419 35.7536C19.6155 35.8512 19.6539 35.9648 19.6539 36.0976C19.6539 36.2016 19.6299 36.3024 19.5819 36.4C19.5339 36.4976 19.4683 36.576 19.3851 36.6352C19.3019 36.6928 19.1995 36.7296 19.0763 36.744C18.9995 36.752 18.8155 36.76 18.5227 36.76H17.7483V34.4832ZM16.4587 35.856L16.1419 35.0144L15.8347 35.856H16.4587ZM17.3003 36.7584H16.8043L16.6075 36.24H15.6955L15.5067 36.7584H15.0203L15.9035 34.4832H16.3899L17.3003 36.7584ZM12.8091 36.0208L13.2571 35.976C13.2843 36.1264 13.3387 36.2352 13.4203 36.3056C13.5019 36.376 13.6123 36.4112 13.7515 36.4112C13.8987 36.4112 14.0091 36.3792 14.0843 36.3168C14.1595 36.2544 14.1963 36.1808 14.1963 36.0976C14.1963 36.0432 14.1803 35.9984 14.1499 35.96C14.1179 35.9216 14.0635 35.8896 13.9851 35.8624C13.9323 35.8432 13.8091 35.8112 13.6187 35.7632C13.3739 35.7024 13.2011 35.6272 13.1019 35.5376C12.9627 35.4128 12.8939 35.2592 12.8939 35.0784C12.8939 34.9632 12.9275 34.8528 12.9915 34.752C13.0571 34.6512 13.1515 34.5744 13.2747 34.5216C13.3979 34.4688 13.5467 34.4416 13.7211 34.4416C14.0059 34.4416 14.2203 34.504 14.3627 34.6304C14.5067 34.7568 14.5819 34.9248 14.5899 35.136L14.1291 35.152C14.1099 35.0352 14.0683 34.9504 14.0043 34.8992C13.9403 34.848 13.8443 34.8224 13.7163 34.8224C13.5835 34.8224 13.4795 34.8496 13.4059 34.9056C13.3579 34.9408 13.3339 34.9888 13.3339 35.048C13.3339 35.1024 13.3563 35.1488 13.4027 35.1856C13.4603 35.2352 13.6011 35.2864 13.8235 35.3392C14.0459 35.392 14.2107 35.4464 14.3179 35.5024C14.4251 35.5584 14.5083 35.6352 14.5691 35.7344C14.6299 35.832 14.6603 35.9536 14.6603 36.096C14.6603 36.2256 14.6235 36.3488 14.5515 36.4624C14.4795 36.576 14.3771 36.6608 14.2443 36.7168C14.1115 36.7728 13.9467 36.8 13.7499 36.8C13.4619 36.8 13.2411 36.7344 13.0875 36.6016C12.9307 36.4672 12.8395 36.2752 12.8091 36.0208Z" fill="#373435"/>
<path fill-rule="evenodd" clip-rule="evenodd" d="M27.4442 14.5984C27.4442 14.5984 24.9002 12.8064 25.8522 10.528C26.8026 8.2496 28.793 6.2144 29.0378 4.424C29.2794 2.632 28.5066 1.216 27.0682 0C27.0682 0 28.7498 1.968 26.5594 5.0208C24.369 8.0736 23.4186 9.4672 23.905 11.3024C24.3914 13.1376 27.4442 14.5984 27.4442 14.5984Z" fill="black"/>
<path fill-rule="evenodd" clip-rule="evenodd" d="M25.1291 7.7392C25.1291 7.7392 23.7803 6.7888 24.2843 5.5824C24.7883 4.3744 25.8443 3.296 25.9723 2.3456C26.1019 1.3952 25.6907 0.6448 24.9291 0C24.9291 0 25.8203 1.0432 24.6587 2.6624C23.4971 4.28 22.9931 5.0192 23.2523 5.992C23.5115 6.9648 25.1291 7.7392 25.1291 7.7392Z" fill="black"/>
<path fill-rule="evenodd" clip-rule="evenodd" d="M8.72915 34.4608C9.36595 34.4608 9.88115 34.976 9.88115 35.6128C9.88115 36.2496 9.36595 36.7648 8.72915 36.7648C8.09235 36.7648 7.57715 36.2496 7.57715 35.6128C7.57715 34.9776 8.09235 34.4608 8.72915 34.4608Z" fill="white"/>
</svg>
