<svg width="40" height="40" viewBox="0 0 40 40" fill="none" xmlns="http://www.w3.org/2000/svg">
<path fill-rule="evenodd" clip-rule="evenodd" d="M29.5164 26.0928L20.2252 16.8016L32.9164 13.4016L29.5164 26.0928ZM15.2172 21.1552C15.246 21.1648 15.2732 21.1744 15.3004 21.184L15.2172 21.1552ZM4.55001 34.7648L3.46842 38.8C3.39162 39.0896 3.09082 39.2624 2.80282 39.184C2.51482 39.1072 2.34042 38.8064 2.41882 38.5184L3.96922 32.7312L4.84442 29.464L6.29562 24.032L6.43962 23.4976C6.48122 23.3296 6.56762 23.1696 6.70042 23.0384C7.08601 22.6528 7.71162 22.6528 8.09722 23.0384L8.50042 23.4416L13.1164 28.0576C13.254 28.208 13.4684 28.2784 13.6796 28.2224C13.9804 28.1424 14.1596 27.832 14.0796 27.5312L13.7324 26.232L13.1996 24.2432V24.2416V24.2384L13.198 24.2352L13.1964 24.2304L13.1948 24.224L12.9612 23.3504L12.9644 23.3472L12.9564 23.3168C12.7004 22.3648 13.2668 21.3856 14.2188 21.1296C14.5612 21.0384 14.9068 21.0528 15.2204 21.152L22.2252 24.3376L20.9868 23.1456L15.8188 17.984L15.0364 17.2016C14.7868 16.9616 14.598 16.6512 14.502 16.2928C14.2204 15.2384 14.8444 14.1552 15.8988 13.872L17.0012 13.576L34.1004 8.99518L35.2028 8.69918H35.2044C36.2572 8.41758 37.3404 9.04318 37.622 10.0976C37.718 10.456 37.7084 10.8176 37.614 11.1504L37.3276 12.2224L33.4972 26.5168L32.7452 29.3216L32.4588 30.3904C32.2908 31.064 31.7708 31.6288 31.0524 31.8224C30.6396 31.9328 30.2204 31.904 29.8492 31.7648L29.846 31.7632C29.7676 31.7328 29.6908 31.6992 29.6156 31.6592L24.2124 29.2176L24.2092 29.2192L24.1948 29.2096L14.75 24.9408C14.71 24.9216 14.6668 24.912 14.6204 24.912C14.4508 24.912 14.3148 25.048 14.3148 25.2176C14.3148 25.24 14.318 25.2624 14.3228 25.2848V25.288V25.2896L14.9452 27.608L15.3852 29.2496L15.51 29.7152L15.5068 29.7184C15.5724 29.9136 15.6076 30.1216 15.6076 30.3392C15.6076 31.424 14.7292 32.3024 13.6444 32.3024C13.1356 32.3024 12.6716 32.1088 12.3228 31.7904C12.2764 31.7552 12.2316 31.7152 12.1868 31.672L12.1852 31.6704L11.0636 30.5488L10.4236 29.9088L8.92282 28.408L8.81722 28.3024L8.55001 28.0352L8.14202 27.6272L7.20602 26.6912C7.14842 26.64 7.07322 26.6096 6.99002 26.6096C6.83962 26.6096 6.71321 26.7104 6.67641 26.848L4.55001 34.7648Z" fill="#007755"/>
<path fill-rule="evenodd" clip-rule="evenodd" d="M21.2844 16.5184C21.2844 16.5184 23.9404 17.7648 27.27 16.8288C30.5996 15.8928 32.0236 16.736 32.0236 16.736L29.5164 26.0928L20.2252 16.8016L21.2844 16.5184Z" fill="#D6D6D6"/>
<path d="M30.7612 36.7585V34.4833H32.4444V34.8673H31.222V35.3729H32.3596V35.7569H31.222V36.3729H32.4892V36.7569H30.7612V36.7585ZM28.6172 36.7585V34.4833H30.1804V34.8673H29.078V35.4081H30.0316V35.7921H29.078V36.7585H28.6172ZM27.3276 35.8561L27.0108 35.0145L26.7036 35.8561H27.3276ZM28.1692 36.7585H27.6732L27.4764 36.2401H26.5644L26.3756 36.7585H25.8892L26.7724 34.4833H27.2588L28.1692 36.7585ZM25.078 35.9201L25.5228 36.0561C25.454 36.3073 25.3404 36.4929 25.182 36.6145C25.0236 36.7361 24.822 36.7969 24.5772 36.7969C24.2748 36.7969 24.0268 36.6928 23.8316 36.4864C23.638 36.2801 23.5404 35.9985 23.5404 35.6401C23.5404 35.2609 23.638 34.9665 23.8332 34.7569C24.0284 34.5473 24.286 34.4417 24.6044 34.4417C24.8828 34.4417 25.1084 34.5249 25.2828 34.6897C25.3868 34.7873 25.4636 34.9265 25.5164 35.1089L25.062 35.2161C25.0348 35.0993 24.9788 35.0049 24.894 34.9377C24.8092 34.8689 24.7052 34.8353 24.582 34.8353C24.4124 34.8353 24.2764 34.8961 24.1708 35.0177C24.0652 35.1377 24.0124 35.3345 24.0124 35.6049C24.0124 35.8913 24.0652 36.0977 24.1676 36.2193C24.2716 36.3409 24.406 36.4017 24.5708 36.4017C24.6924 36.4017 24.798 36.3633 24.886 36.2849C24.9772 36.2081 25.0412 36.0865 25.078 35.9201ZM20.7052 35.4465H21.0444C21.2652 35.4465 21.4012 35.4369 21.4572 35.4177C21.5116 35.4001 21.5548 35.3665 21.5852 35.3217C21.6156 35.2769 21.6316 35.2193 21.6316 35.1505C21.6316 35.0737 21.6108 35.0113 21.5708 34.9649C21.5308 34.9185 21.4716 34.8881 21.398 34.8753C21.3612 34.8689 21.2492 34.8673 21.0636 34.8673H20.7052V35.4465ZM20.2444 36.7585V34.4833H21.2124C21.4556 34.4833 21.6316 34.5041 21.742 34.5441C21.8524 34.5841 21.9404 34.6577 22.006 34.7617C22.0716 34.8657 22.1052 34.9857 22.1052 35.1201C22.1052 35.2913 22.0556 35.4321 21.9548 35.5425C21.8556 35.6529 21.7052 35.7233 21.5068 35.7521C21.606 35.8097 21.6876 35.8737 21.7516 35.9425C21.8156 36.0113 21.902 36.1361 22.0124 36.3121L22.2892 36.7553H21.7404L21.4108 36.2593C21.294 36.0833 21.2108 35.9713 21.1676 35.9265C21.1244 35.8816 21.078 35.8497 21.03 35.8321C20.9804 35.8145 20.9036 35.8065 20.798 35.8065H20.7052V36.7569H20.2444V36.7585ZM18.2076 35.7633V36.3729H18.6332C18.798 36.3729 18.9036 36.3681 18.9484 36.3585C19.0172 36.3457 19.0732 36.3153 19.1148 36.2673C19.158 36.2193 19.1788 36.1553 19.1788 36.0737C19.1788 36.0049 19.1628 35.9473 19.1292 35.8993C19.0956 35.8513 19.0476 35.8161 18.9852 35.7953C18.9228 35.7729 18.7868 35.7617 18.5772 35.7617H18.2076V35.7633ZM18.2076 34.8609V35.3857H18.5084C18.6876 35.3857 18.798 35.3825 18.8412 35.3777C18.9196 35.3681 18.982 35.3409 19.0268 35.2961C19.0716 35.2513 19.094 35.1921 19.094 35.1201C19.094 35.0497 19.0748 34.9937 19.0364 34.9489C18.998 34.9057 18.9404 34.8785 18.8636 34.8689C18.8188 34.8641 18.6876 34.8609 18.4716 34.8609H18.2076ZM17.7484 34.4833H18.6572C18.838 34.4833 18.9724 34.4913 19.0604 34.5057C19.15 34.5201 19.2284 34.5521 19.2988 34.6001C19.3692 34.6481 19.4268 34.7105 19.4732 34.7889C19.5196 34.8673 19.5436 34.9569 19.5436 35.0545C19.5436 35.1601 19.5148 35.2577 19.4572 35.3473C19.3996 35.4369 19.3228 35.5025 19.2236 35.5473C19.3612 35.5889 19.4684 35.6561 19.542 35.7537C19.6156 35.8513 19.654 35.9649 19.654 36.0977C19.654 36.2017 19.63 36.3025 19.582 36.4001C19.534 36.4977 19.4684 36.5761 19.3852 36.6353C19.302 36.6929 19.1996 36.7297 19.0764 36.7441C18.9996 36.752 18.8156 36.7601 18.5228 36.7601H17.7484V34.4833ZM16.4588 35.8561L16.142 35.0145L15.8348 35.8561H16.4588ZM17.3004 36.7585H16.8044L16.6076 36.2401H15.6956L15.5068 36.7585H15.0204L15.9036 34.4833H16.39L17.3004 36.7585ZM12.8092 36.0209L13.2572 35.9761C13.2844 36.1265 13.3388 36.2353 13.4204 36.3057C13.502 36.3761 13.6124 36.4113 13.7516 36.4113C13.8988 36.4113 14.0092 36.3793 14.0844 36.3169C14.1596 36.2545 14.1964 36.1809 14.1964 36.0977C14.1964 36.0433 14.1804 35.9985 14.15 35.9601C14.118 35.9217 14.0636 35.8897 13.9852 35.8625C13.9324 35.8433 13.8092 35.8113 13.6188 35.7633C13.374 35.7025 13.2012 35.6273 13.102 35.5377C12.9628 35.4129 12.894 35.2593 12.894 35.0785C12.894 34.9633 12.9276 34.8529 12.9916 34.7521C13.0572 34.6513 13.1516 34.5745 13.2748 34.5217C13.398 34.4689 13.5468 34.4417 13.7212 34.4417C14.006 34.4417 14.2204 34.5041 14.3628 34.6305C14.5068 34.7569 14.582 34.9249 14.59 35.1361L14.1292 35.1521C14.11 35.0353 14.0684 34.9505 14.0044 34.8993C13.9404 34.8481 13.8444 34.8225 13.7164 34.8225C13.5836 34.8225 13.4796 34.8497 13.406 34.9057C13.358 34.9409 13.334 34.9889 13.334 35.0481C13.334 35.1025 13.3564 35.1489 13.4028 35.1857C13.4604 35.2353 13.6012 35.2865 13.8236 35.3393C14.046 35.3921 14.2108 35.4465 14.318 35.5025C14.4252 35.5585 14.5084 35.6353 14.5692 35.7345C14.63 35.8321 14.6604 35.9537 14.6604 36.0961C14.6604 36.2257 14.6236 36.3489 14.5516 36.4625C14.4796 36.5761 14.3772 36.6609 14.2444 36.7169C14.1116 36.7729 13.9468 36.8001 13.75 36.8001C13.462 36.8001 13.2412 36.7345 13.0876 36.6017C12.9308 36.4673 12.8396 36.2753 12.8092 36.0209Z" fill="#373435"/>
<path fill-rule="evenodd" clip-rule="evenodd" d="M27.4444 14.5984C27.4444 14.5984 24.9004 12.8064 25.8524 10.528C26.8028 8.2496 28.7932 6.2144 29.038 4.424C29.2796 2.632 28.5068 1.216 27.0684 0C27.0684 0 28.75 1.968 26.5596 5.0208C24.3692 8.0736 23.4188 9.4672 23.9052 11.3024C24.3916 13.1376 27.4444 14.5984 27.4444 14.5984Z" fill="#D6D6D6"/>
<path fill-rule="evenodd" clip-rule="evenodd" d="M25.1293 7.7392C25.1293 7.7392 23.7805 6.7888 24.2845 5.5824C24.7885 4.3744 25.8445 3.296 25.9725 2.3456C26.1021 1.3952 25.6909 0.6448 24.9293 0C24.9293 0 25.8205 1.0432 24.6589 2.6624C23.4973 4.28 22.9933 5.0192 23.2525 5.992C23.5117 6.9648 25.1293 7.7392 25.1293 7.7392Z" fill="#D6D6D6"/>
<path fill-rule="evenodd" clip-rule="evenodd" d="M8.72915 34.4608C9.36595 34.4608 9.88115 34.976 9.88115 35.6128C9.88115 36.2496 9.36595 36.7648 8.72915 36.7648C8.09235 36.7648 7.57715 36.2496 7.57715 35.6128C7.57715 34.9776 8.09235 34.4608 8.72915 34.4608Z" fill="#007755"/>
</svg>
