<svg width="35" height="37" viewBox="0 0 35 37" fill="none" xmlns="http://www.w3.org/2000/svg">
<path d="M3.38678 17V22C3.38678 28.285 3.38678 31.4283 5.34011 33.38C7.29345 35.3317 10.4351 35.3333 16.7201 35.3333H18.3868C24.6718 35.3333 27.8151 35.3333 29.7668 33.38M31.7201 17V22C31.7201 23.95 31.7201 25.5967 31.6618 27" stroke="black" stroke-width="2.5" stroke-linecap="round"/>
<path d="M13.3868 2H21.7201M13.3868 2L12.3001 12.8617C12.2285 13.5946 12.3111 14.3344 12.5425 15.0335C12.7739 15.7327 13.1491 16.3756 13.6439 16.9211C14.1386 17.4665 14.7421 17.9024 15.4154 18.2007C16.0887 18.499 16.817 18.6531 17.5534 18.6531C18.2899 18.6531 19.0181 18.499 19.6914 18.2007C20.3648 17.9024 20.9682 17.4665 21.463 16.9211C21.9578 16.3756 22.3329 15.7327 22.5643 15.0335C22.7958 14.3344 22.8783 13.5946 22.8068 12.8617L21.7201 2M13.3868 2H9.91676C8.40342 2 7.64676 2 6.99676 2.17833C6.3207 2.36376 5.6912 2.68927 5.14909 3.13375C4.60699 3.57823 4.16442 4.13173 3.85009 4.75833M13.3868 2L12.1784 14.075C12.1147 14.766 11.9105 15.4368 11.5785 16.0462C11.2465 16.6556 10.7936 17.1909 10.2476 17.6192C9.70153 18.0475 9.07381 18.3599 8.40285 18.5372C7.73189 18.7144 7.03181 18.7529 6.34546 18.6502C5.65912 18.5476 5.00094 18.3059 4.41124 17.94C3.82154 17.5742 3.31271 17.0918 2.9159 16.5224C2.5191 15.9531 2.24267 15.3087 2.10354 14.6288C1.96441 13.9489 1.96551 13.2478 2.10676 12.5683L2.22009 12M21.7201 2H25.1901C26.7034 2 27.4601 2 28.1101 2.17833C28.7861 2.36376 29.4157 2.68927 29.9578 3.13375C30.4999 3.57823 30.9424 4.13173 31.2568 4.75833C31.5584 5.35833 31.7068 6.10167 32.0034 7.585L33.0001 12.5683C33.1413 13.2478 33.1424 13.9489 33.0033 14.6288C32.8642 15.3087 32.5877 15.9531 32.1909 16.5224C31.7941 17.0918 31.2853 17.5742 30.6956 17.94C30.1059 18.3059 29.4477 18.5476 28.7614 18.6502C28.075 18.7529 27.375 18.7144 26.704 18.5372C26.033 18.3599 25.4053 18.0475 24.8593 17.6192C24.3132 17.1909 23.8603 16.6556 23.5283 16.0462C23.1963 15.4368 22.9922 14.766 22.9284 14.075L21.7201 2ZM13.3868 34.5V29.5C13.3868 27.9417 13.3868 27.1633 13.7218 26.5833C13.9412 26.2033 14.2567 25.8877 14.6368 25.6683C15.2168 25.3333 15.9951 25.3333 17.5534 25.3333C19.1118 25.3333 19.8901 25.3333 20.4701 25.6683C20.8501 25.8877 21.1657 26.2033 21.3851 26.5833C21.7201 27.1633 21.7201 27.9417 21.7201 29.5V34.5" stroke="black" stroke-width="2.5" stroke-linecap="round"/>
</svg>
