<svg width="36" height="36" viewBox="0 0 36 36" fill="none" xmlns="http://www.w3.org/2000/svg">
<path d="M6.67771 29.1405C5.92902 29.1405 5.28685 29.0475 4.7512 28.8613C4.21554 28.6812 3.75294 28.4019 3.36337 28.0234C3.11989 27.7832 2.93119 27.531 2.79728 27.2667C2.66945 27.0025 2.5751 26.7443 2.51423 26.4921C2.45945 26.2338 2.42598 25.9905 2.4138 25.7623C2.40772 25.5341 2.40467 25.3389 2.40467 25.1768V25.0417C2.41076 24.8194 2.41684 24.501 2.42293 24.0866C2.43511 23.6663 2.44119 23.1738 2.44119 22.6093C2.44119 22.0447 2.43815 21.4231 2.43206 20.7445C2.42598 20.0658 2.40772 19.3901 2.37728 18.7175C2.35293 18.0389 2.31337 17.3873 2.25858 16.7625C2.20989 16.138 2.13989 15.5945 2.04858 15.132L4.77859 14.3123C4.85772 14.7086 4.92163 15.177 4.97032 15.7177C5.01903 16.2521 5.05858 16.8136 5.08902 17.4022C5.12554 17.9908 5.14989 18.5824 5.16207 19.1769C5.18032 19.7715 5.1925 20.324 5.19859 20.8345V21.0147C5.19859 21.4052 5.18337 21.7835 5.15293 22.1498C5.11033 22.5822 5.07685 23.0027 5.05251 23.411C5.04033 23.6092 5.03424 23.8014 5.03424 23.9876C5.03424 24.1978 5.04337 24.405 5.06163 24.6092C5.08597 24.9995 5.16816 25.3779 5.30815 25.7442C5.36293 25.8825 5.42989 25.9875 5.50902 26.0596C5.59425 26.1317 5.69163 26.1857 5.8012 26.2217C5.91076 26.2517 6.02946 26.2698 6.15729 26.2759C6.29119 26.2818 6.43728 26.2849 6.59554 26.2849H6.67771C6.8725 26.2849 7.05816 26.3238 7.23468 26.4019C7.4112 26.4799 7.56338 26.5852 7.69121 26.7172C7.82511 26.8433 7.93164 26.9935 8.01077 27.1677C8.08989 27.3419 8.12946 27.525 8.12946 27.7172C8.12946 27.9154 8.08989 28.1016 8.01077 28.2758C7.93164 28.45 7.82511 28.6 7.69121 28.7261C7.56338 28.8583 7.4112 28.9604 7.23468 29.0325C7.05816 29.1046 6.8725 29.1405 6.67771 29.1405ZM5.22976 27.7172C5.22976 27.5191 5.26629 27.3358 5.33932 27.1677C5.41237 26.9996 5.5128 26.8523 5.64063 26.7262C5.76846 26.6001 5.92063 26.501 6.09715 26.4289C6.26758 26.3509 6.45324 26.3059 6.6541 26.2938C7.06194 26.2938 7.41498 26.2158 7.71324 26.0596C8.01759 25.9035 8.28542 25.6992 8.51672 25.4471C8.74803 25.1947 8.95499 24.9125 9.1376 24.6002C9.32021 24.2879 9.49368 23.9756 9.65802 23.6632V23.6722C9.81629 23.348 9.98367 23.0267 10.1602 22.7083C10.3428 22.3901 10.5406 22.0957 10.7537 21.8255C11.0824 21.4472 11.4506 21.1558 11.8585 20.9517C12.2663 20.7414 12.7015 20.6363 13.1641 20.6363C13.7119 20.6363 14.208 20.7475 14.6524 20.9696C15.1028 21.1919 15.5106 21.5102 15.8759 21.9246C16.1497 22.2489 16.372 22.6213 16.5424 23.0416C16.7128 23.456 16.8255 23.8975 16.8802 24.3659V24.348C16.9167 24.5821 16.935 24.8494 16.935 25.1497C16.935 25.474 16.9045 25.7923 16.8436 26.1046C16.7889 26.411 16.7098 26.7022 16.6063 26.9784C16.4055 27.4829 16.1163 27.9064 15.7389 28.2487C15.3676 28.5851 14.9628 28.8163 14.5246 28.9424C14.3785 28.9844 14.2324 29.0115 14.0863 29.0235C13.9463 29.0415 13.7972 29.0504 13.6389 29.0504C13.365 29.0504 13.0728 29.0174 12.7624 28.9514C12.458 28.8854 12.1567 28.7953 11.8585 28.6812C11.7367 28.6271 11.5998 28.5641 11.4476 28.492C11.2954 28.4139 11.1341 28.3298 10.9637 28.2397C10.7993 28.1497 10.635 28.0566 10.4706 27.9604C10.3063 27.8643 10.1541 27.7712 10.0141 27.6811C9.77063 27.9034 9.52716 28.1045 9.28368 28.2848C9.0402 28.4649 8.78454 28.6181 8.51672 28.7442C8.24889 28.8703 7.96281 28.9663 7.65846 29.0325C7.35411 29.1046 7.02237 29.1405 6.66324 29.1405C6.46237 29.1405 6.27672 29.1015 6.10629 29.0235C5.92977 28.9514 5.77759 28.8522 5.64976 28.7261C5.51584 28.6 5.41237 28.45 5.33932 28.2758C5.26629 28.1016 5.22976 27.9154 5.22976 27.7172ZM11.7032 25.3479C11.8919 25.4681 12.1141 25.5851 12.3698 25.6992C12.6315 25.8134 12.8902 25.9155 13.1459 26.0056C13.4015 26.0956 13.6359 26.1708 13.8489 26.2307C14.068 26.2849 14.2324 26.3118 14.3419 26.3118C14.3663 26.3118 14.3906 26.3118 14.415 26.3118C14.4454 26.3059 14.4759 26.2998 14.5063 26.2938C14.5793 26.2759 14.6524 26.1828 14.7254 26.0145C14.7802 25.8884 14.8076 25.7203 14.8076 25.5101C14.8076 25.4561 14.8046 25.3989 14.7985 25.3389C14.7985 25.1468 14.7437 24.9364 14.6341 24.7082C14.5246 24.4741 14.3815 24.2579 14.205 24.0597C14.0285 23.8555 13.8245 23.6873 13.5932 23.5552C13.368 23.4171 13.1367 23.348 12.8993 23.348C12.8141 23.348 12.7046 23.4681 12.5706 23.7083C12.4367 23.9485 12.2419 24.306 11.9863 24.7803V24.7713L11.7032 25.3479ZM17.3164 32.717C18.1746 32.5488 18.9507 32.3357 19.6446 32.0775C20.3446 31.8251 20.9563 31.5399 21.4798 31.2216C22.0095 30.9093 22.4446 30.576 22.7856 30.2217C23.1264 29.8672 23.3698 29.507 23.5159 29.1405C23.2542 29.1405 22.9894 29.1346 22.7215 29.1225C22.4538 29.1166 22.2255 29.1075 22.0368 29.0956C21.3307 29.0355 20.6856 28.8793 20.1012 28.6271C19.5168 28.3809 19.0512 28.0445 18.7042 27.6181C18.4485 27.2938 18.2659 26.9424 18.1564 26.564C18.0529 26.1857 18.0012 25.7863 18.0012 25.3659C18.0012 25.0417 18.0316 24.7173 18.0925 24.393C18.1533 24.0627 18.2385 23.7443 18.3481 23.4381C18.4576 23.1258 18.5856 22.8314 18.7315 22.5553C18.8838 22.279 19.045 22.0268 19.2156 21.7984C19.5807 21.348 19.9794 21.0087 20.4115 20.7805C20.8498 20.5463 21.3094 20.4291 21.7903 20.4291C22.819 20.4291 23.7472 20.8735 24.5751 21.7624C24.8307 22.0447 25.062 22.357 25.269 22.6993C25.476 23.0416 25.6585 23.4081 25.8168 23.7985C25.975 24.1828 26.1028 24.5851 26.2003 25.0056C26.3038 25.426 26.3737 25.8554 26.4103 26.2938H26.5837C26.7846 26.2938 26.9733 26.3299 27.1498 26.4019C27.3264 26.474 27.4785 26.5761 27.6064 26.7082C27.7402 26.8344 27.8469 26.9845 27.9259 27.1587C28.0051 27.3329 28.0446 27.522 28.0446 27.7263C28.0446 27.9184 28.0051 28.1016 27.9259 28.2758C27.8469 28.4439 27.7402 28.591 27.6064 28.7171C27.4785 28.8493 27.3264 28.9514 27.1498 29.0235C26.9733 29.1015 26.7846 29.1405 26.5837 29.1405H26.182C25.9446 30.0234 25.5642 30.8221 25.0407 31.5368C24.5233 32.2515 23.9025 32.8762 23.1781 33.4106C22.4599 33.9452 21.6564 34.3867 20.7676 34.735C19.885 35.0833 18.9598 35.3326 17.992 35.4826L17.3164 32.717ZM21.7903 23.2849C21.6564 23.2849 21.5073 23.345 21.3429 23.465C21.1846 23.5791 21.0355 23.7264 20.8956 23.9065C20.7555 24.0866 20.6368 24.2879 20.5395 24.5101C20.4481 24.7324 20.4025 24.9486 20.4025 25.1587C20.4025 25.363 20.4603 25.5311 20.5759 25.6633C20.6916 25.7953 20.8377 25.9035 21.0142 25.9875C21.1968 26.0655 21.3946 26.1256 21.6076 26.1677C21.8208 26.2038 22.0276 26.2307 22.2285 26.2488C22.3381 26.2608 22.4568 26.2698 22.5846 26.2759C22.7185 26.2759 22.8555 26.2759 22.9956 26.2759C23.1355 26.2759 23.2725 26.2788 23.4064 26.2849C23.5464 26.2849 23.6742 26.2878 23.7898 26.2938C23.7472 25.9995 23.6803 25.7232 23.589 25.465C23.4976 25.2067 23.3943 24.9665 23.2785 24.7443C23.169 24.522 23.0472 24.3239 22.9134 24.1497C22.7856 23.9696 22.6608 23.8134 22.539 23.6813C22.4964 23.6392 22.4416 23.5942 22.3746 23.5461C22.3138 23.4982 22.2499 23.456 22.1829 23.42C22.116 23.378 22.0459 23.345 21.9729 23.3209C21.906 23.2969 21.8451 23.2849 21.7903 23.2849ZM33.9447 17.3841L32.1916 19.1229L30.4567 17.4112L28.7403 19.1048L26.9689 17.3662L28.722 15.6275L30.4567 17.3392L32.1733 15.6456L33.9447 17.3841ZM24.805 27.7172C24.805 27.5191 24.8446 27.3329 24.9237 27.1587C24.9967 26.9845 25.0972 26.8344 25.225 26.7082C25.3528 26.5761 25.5051 26.474 25.6816 26.4019C25.858 26.3299 26.0467 26.2938 26.2477 26.2938H27.6994C27.9733 26.2938 28.2747 26.2818 28.6033 26.2578C28.932 26.2338 29.2485 26.1947 29.5528 26.1407C29.8572 26.0866 30.1311 26.0145 30.3747 25.9245C30.6241 25.8283 30.8068 25.7083 30.9225 25.5641C30.9894 25.462 31.0228 25.3239 31.0228 25.1497C31.0228 24.8915 30.9589 24.5851 30.8311 24.2308C30.7093 23.8765 30.5634 23.5161 30.3928 23.1498C30.2224 22.7835 30.0459 22.4321 29.8633 22.0957C29.6868 21.7595 29.5437 21.4802 29.4342 21.2579L32.0364 19.9968C32.2251 20.3211 32.4076 20.7054 32.5842 21.1499C32.7607 21.5882 32.919 22.0417 33.0589 22.5101C33.199 22.9726 33.3115 23.4291 33.3967 23.8794C33.4819 24.3239 33.5247 24.7113 33.5247 25.0417C33.5247 25.6482 33.415 26.2038 33.1959 26.7082C32.9403 27.2728 32.5903 27.7412 32.1459 28.1136C31.7016 28.4799 31.1689 28.7501 30.5481 28.9243C30.3655 28.9724 30.1372 29.0115 29.8633 29.0415C29.5894 29.0716 29.3124 29.0926 29.0325 29.1046C28.7524 29.1225 28.4877 29.1315 28.2381 29.1315C27.9885 29.1376 27.7938 29.1405 27.6537 29.1405H26.2477C26.0467 29.1405 25.858 29.1046 25.6816 29.0325C25.5051 28.9604 25.3528 28.8583 25.225 28.7261C25.0972 28.6 24.9967 28.45 24.9237 28.2758C24.8446 28.1016 24.805 27.9154 24.805 27.7172Z" fill="#007755"/>
<path d="M8.99393 14.8733C8.57393 14.8733 8.14175 14.8523 7.6974 14.8103C7.25914 14.7743 6.82392 14.6991 6.39174 14.585C5.95957 14.477 5.54262 14.3269 5.14087 14.1347C4.73914 13.9425 4.36478 13.6932 4.01783 13.3869C3.67087 13.0866 3.36956 12.7533 3.11392 12.387C2.86435 12.0266 2.65739 11.6423 2.49304 11.2339C2.3287 10.8255 2.20391 10.399 2.1187 9.95462C2.03957 9.51019 2 9.05676 2 8.59431C2 7.60935 2.15826 6.6154 2.47478 5.61243C2.79739 4.60946 3.27217 3.63952 3.89914 2.70261L5.95348 4.16202C5.83174 4.32417 5.6887 4.56741 5.52435 4.89172C5.36001 5.21604 5.20174 5.5854 5.04957 5.9998C4.89739 6.4142 4.76958 6.85563 4.66609 7.32408C4.56261 7.78652 4.51087 8.23395 4.51087 8.66638C4.51087 9.16486 4.62347 9.6153 4.8487 10.0177C5.08 10.4201 5.38435 10.7654 5.76174 11.0537C6.14523 11.342 6.58348 11.5672 7.07653 11.7293C7.57566 11.8915 8.09306 11.9786 8.62871 11.9906H8.72001C9.12174 11.9906 9.51132 11.9546 9.88871 11.8825C10.2965 11.8044 10.683 11.6903 11.0483 11.5402C11.4135 11.39 11.7452 11.2068 12.0435 10.9906C12.3478 10.7744 12.6065 10.5312 12.8196 10.2609C13.0387 9.99667 13.2061 9.70839 13.3218 9.39608C13.4131 9.12582 13.4587 8.84656 13.4587 8.55827V8.41413C13.4465 8.15588 13.3978 7.86461 13.3126 7.54029C13.2274 7.21598 13.1239 6.88566 13.0022 6.54933C12.8865 6.207 12.7557 5.87067 12.6096 5.54035C12.4696 5.21003 12.3357 4.90675 12.2078 4.63048C12.0861 4.34821 11.9796 4.10798 11.8883 3.90977C11.797 3.71159 11.7391 3.57646 11.7148 3.50439L14.1983 2.14407C14.2165 2.16809 14.2683 2.27621 14.3535 2.46838C14.4448 2.66058 14.5513 2.90981 14.6731 3.21611C14.8009 3.5164 14.9348 3.86173 15.0748 4.25211C15.2148 4.64249 15.3457 5.05088 15.4674 5.47729C15.5952 5.90371 15.7048 6.33612 15.7961 6.77455C15.8874 7.21298 15.9452 7.63038 15.9696 8.02675C15.9757 8.07481 15.9787 8.13186 15.9787 8.19793V8.37809C15.9787 8.91261 15.9178 9.44412 15.7961 9.97265C15.6744 10.5012 15.4857 11.0056 15.23 11.4861C14.9804 11.9726 14.6639 12.42 14.2805 12.8284C13.9031 13.2428 13.4557 13.6001 12.9383 13.9004C12.4209 14.2067 11.8335 14.444 11.1761 14.6121C10.5187 14.7863 9.79131 14.8733 8.99393 14.8733ZM8.99393 0L11.0209 1.99993L8.99393 3.99986L6.96696 1.99993L8.99393 0Z" fill="#007755"/>
</svg>
